<svg width="34" height="34" viewBox="0 0 34 34" fill="none" xmlns="http://www.w3.org/2000/svg">
<path fill-rule="evenodd" clip-rule="evenodd" d="M17 34C26.3888 34 34 26.3888 34 17C34 7.61116 26.3888 0 17 0C7.61116 0 0 7.61116 0 17C0 26.3888 7.61116 34 17 34ZM11.7245 16.8276C11.7245 17.2056 12.0482 17.5105 12.4354 17.5105H16.3262H17.7479H21.6387C22.0258 17.5105 22.3495 17.2056 22.3495 16.8276C22.3495 16.4556 22.0258 16.1447 21.6387 16.1447H17.7479H16.3262H12.4354C12.0482 16.1447 11.7245 16.4556 11.7245 16.8276Z" fill="#1A1B22"/>
</svg>
