<svg width="24" height="24" viewBox="0 0 24 24" fill="none" xmlns="http://www.w3.org/2000/svg">
<path d="M10.4121 19.186C10.769 19.186 11.0513 19.0283 11.2505 18.7212L19.0947 6.36963C19.2441 6.12891 19.3022 5.94629 19.3022 5.75537C19.3022 5.29883 19.0034 5 18.5469 5C18.2148 5 18.0322 5.10791 17.833 5.42334L10.3789 17.3018L6.51074 12.2383C6.30322 11.9478 6.0957 11.8315 5.79688 11.8315C5.32373 11.8315 5 12.1553 5 12.6118C5 12.8027 5.08301 13.0186 5.24072 13.2178L9.54883 18.7046C9.79785 19.0283 10.0552 19.186 10.4121 19.186Z" fill="#3772E7"/>
</svg>
